<?xml version="1.0" encoding="UTF-8" standalone="no"?>
<svg
   xmlns:dc="http://purl.org/dc/elements/1.1/"
   xmlns:cc="http://creativecommons.org/ns#"
   xmlns:rdf="http://www.w3.org/1999/02/22-rdf-syntax-ns#"
   xmlns:svg="http://www.w3.org/2000/svg"
   xmlns="http://www.w3.org/2000/svg"
   viewBox="0 0 1122.52 793.70135"
   height="793.70135"
   width="900.52"
   xml:space="preserve"
   id="svg2"
   version="1.1"><metadata
     id="metadata8"><rdf:RDF><cc:Work
         rdf:about=""><dc:format>image/svg+xml</dc:format><dc:type
           rdf:resource="http://purl.org/dc/dcmitype/StillImage" /></cc:Work></rdf:RDF></metadata><defs
     id="defs6"><clipPath
       id="clipPath18"
       clipPathUnits="userSpaceOnUse"><path
         id="path16"
         d="M 0,595.276 H 841.89 V 0 H 0 Z" /></clipPath><linearGradient
       id="linearGradient42"
       spreadMethod="pad"
       gradientTransform="matrix(-63.64085,-35.970783,35.970783,-63.64085,402.44214,469.40857)"
       gradientUnits="userSpaceOnUse"
       y2="0"
       x2="1"
       y1="0"
       x1="0"><stop
         id="stop36"
         offset="0"
         style="stop-opacity:1;stop-color:#00a7e1" /><stop
         id="stop38"
         offset="0.37851141"
         style="stop-opacity:1;stop-color:#00a7e1" /><stop
         id="stop40"
         offset="1"
         style="stop-opacity:1;stop-color:#80c2eb" /></linearGradient><linearGradient
       id="linearGradient64"
       spreadMethod="pad"
       gradientTransform="matrix(61.973694,36.521465,-36.521465,61.973694,439.24249,259.36426)"
       gradientUnits="userSpaceOnUse"
       y2="0"
       x2="1"
       y1="0"
       x1="0"><stop
         id="stop58"
         offset="0"
         style="stop-opacity:1;stop-color:#007e88" /><stop
         id="stop60"
         offset="0.37851141"
         style="stop-opacity:1;stop-color:#007e88" /><stop
         id="stop62"
         offset="1"
         style="stop-opacity:1;stop-color:#649ea7" /></linearGradient><linearGradient
       id="linearGradient86"
       spreadMethod="pad"
       gradientTransform="matrix(-59.770447,35.696266,-35.696266,-59.770447,499.52716,434.69702)"
       gradientUnits="userSpaceOnUse"
       y2="0"
       x2="1"
       y1="0"
       x1="0"><stop
         id="stop80"
         offset="0"
         style="stop-opacity:1;stop-color:#007e88" /><stop
         id="stop82"
         offset="0.37851141"
         style="stop-opacity:1;stop-color:#007e88" /><stop
         id="stop84"
         offset="1"
         style="stop-opacity:1;stop-color:#649ea7" /></linearGradient><linearGradient
       id="linearGradient110"
       spreadMethod="pad"
       gradientTransform="matrix(0.5544761,73.047386,-73.047386,0.5544761,511.06577,328.29074)"
       gradientUnits="userSpaceOnUse"
       y2="0"
       x2="1"
       y1="0"
       x1="0"><stop
         id="stop102"
         offset="0"
         style="stop-opacity:1;stop-color:#00a7e1" /><stop
         id="stop104"
         offset="0.00025909"
         style="stop-opacity:1;stop-color:#00a7e1" /><stop
         id="stop106"
         offset="0.37867243"
         style="stop-opacity:1;stop-color:#00a7e1" /><stop
         id="stop108"
         offset="1"
         style="stop-opacity:1;stop-color:#80c2eb" /></linearGradient><linearGradient
       id="linearGradient132"
       spreadMethod="pad"
       gradientTransform="matrix(-0.8300723,-70.560135,70.560135,-0.8300723,330.93665,398.67502)"
       gradientUnits="userSpaceOnUse"
       y2="0"
       x2="1"
       y1="0"
       x1="0"><stop
         id="stop126"
         offset="0"
         style="stop-opacity:1;stop-color:#007e88" /><stop
         id="stop128"
         offset="0.37851141"
         style="stop-opacity:1;stop-color:#007e88" /><stop
         id="stop130"
         offset="1"
         style="stop-opacity:1;stop-color:#649ea7" /></linearGradient><linearGradient
       id="linearGradient154"
       spreadMethod="pad"
       gradientTransform="matrix(63.628853,-36.518642,36.518642,63.628853,338.6817,296.64285)"
       gradientUnits="userSpaceOnUse"
       y2="0"
       x2="1"
       y1="0"
       x1="0"><stop
         id="stop148"
         offset="0"
         style="stop-opacity:1;stop-color:#00a7e1" /><stop
         id="stop150"
         offset="0.37851141"
         style="stop-opacity:1;stop-color:#00a7e1" /><stop
         id="stop152"
         offset="1"
         style="stop-opacity:1;stop-color:#80c2eb" /></linearGradient><linearGradient
       id="linearGradient176"
       spreadMethod="pad"
       gradientTransform="matrix(0.3286062,43.290989,-43.290989,0.3286062,372.77179,343.03418)"
       gradientUnits="userSpaceOnUse"
       y2="0"
       x2="1"
       y1="0"
       x1="0"><stop
         id="stop170"
         offset="0"
         style="stop-opacity:1;stop-color:#00a7e1" /><stop
         id="stop172"
         offset="0.37851141"
         style="stop-opacity:1;stop-color:#00a7e1" /><stop
         id="stop174"
         offset="1"
         style="stop-opacity:1;stop-color:#80c2eb" /></linearGradient><linearGradient
       id="linearGradient198"
       spreadMethod="pad"
       gradientTransform="matrix(-35.422337,21.155024,-21.155024,-35.422337,411.3316,308.63455)"
       gradientUnits="userSpaceOnUse"
       y2="0"
       x2="1"
       y1="0"
       x1="0"><stop
         id="stop192"
         offset="0"
         style="stop-opacity:1;stop-color:#007e88" /><stop
         id="stop194"
         offset="0.37851141"
         style="stop-opacity:1;stop-color:#007e88" /><stop
         id="stop196"
         offset="1"
         style="stop-opacity:1;stop-color:#649ea7" /></linearGradient><linearGradient
       id="linearGradient220"
       spreadMethod="pad"
       gradientTransform="matrix(-37.727703,-21.324276,21.324276,-37.727703,466.31677,329.4671)"
       gradientUnits="userSpaceOnUse"
       y2="0"
       x2="1"
       y1="0"
       x1="0"><stop
         id="stop214"
         offset="0"
         style="stop-opacity:1;stop-color:#00a7e1" /><stop
         id="stop216"
         offset="0.37851141"
         style="stop-opacity:1;stop-color:#00a7e1" /><stop
         id="stop218"
         offset="1"
         style="stop-opacity:1;stop-color:#80c2eb" /></linearGradient><linearGradient
       id="linearGradient242"
       spreadMethod="pad"
       gradientTransform="matrix(-0.4919232,-41.815845,41.815845,-0.4919232,469.1944,385.17456)"
       gradientUnits="userSpaceOnUse"
       y2="0"
       x2="1"
       y1="0"
       x1="0"><stop
         id="stop236"
         offset="0"
         style="stop-opacity:1;stop-color:#007e88" /><stop
         id="stop238"
         offset="0.37851141"
         style="stop-opacity:1;stop-color:#007e88" /><stop
         id="stop240"
         offset="1"
         style="stop-opacity:1;stop-color:#649ea7" /></linearGradient><linearGradient
       id="linearGradient264"
       spreadMethod="pad"
       gradientTransform="matrix(36.729954,21.64518,-21.64518,36.729954,375.57156,399.9122)"
       gradientUnits="userSpaceOnUse"
       y2="0"
       x2="1"
       y1="0"
       x1="0"><stop
         id="stop258"
         offset="0"
         style="stop-opacity:1;stop-color:#007e88" /><stop
         id="stop260"
         offset="0.37851141"
         style="stop-opacity:1;stop-color:#007e88" /><stop
         id="stop262"
         offset="1"
         style="stop-opacity:1;stop-color:#649ea7" /></linearGradient><linearGradient
       id="linearGradient286"
       spreadMethod="pad"
       gradientTransform="matrix(37.720738,-21.649143,21.649143,37.720738,428.4689,421.88193)"
       gradientUnits="userSpaceOnUse"
       y2="0"
       x2="1"
       y1="0"
       x1="0"><stop
         id="stop280"
         offset="0"
         style="stop-opacity:1;stop-color:#00a7e1" /><stop
         id="stop282"
         offset="0.37851141"
         style="stop-opacity:1;stop-color:#00a7e1" /><stop
         id="stop284"
         offset="1"
         style="stop-opacity:1;stop-color:#80c2eb" /></linearGradient><linearGradient
       id="linearGradient308"
       spreadMethod="pad"
       gradientTransform="matrix(-0.4920032,40.83477,-40.83477,-0.4920032,421.17453,367.7225)"
       gradientUnits="userSpaceOnUse"
       y2="0"
       x2="1"
       y1="0"
       x1="0"><stop
         id="stop302"
         offset="0"
         style="stop-opacity:1;stop-color:#50b3e5" /><stop
         id="stop304"
         offset="0.26303688"
         style="stop-opacity:1;stop-color:#50b3e5" /><stop
         id="stop306"
         offset="1"
         style="stop-opacity:1;stop-color:#e8f1fa" /></linearGradient><linearGradient
       id="linearGradient330"
       spreadMethod="pad"
       gradientTransform="matrix(36.893604,21.152348,-21.152348,36.893604,383.69269,343.45142)"
       gradientUnits="userSpaceOnUse"
       y2="0"
       x2="1"
       y1="0"
       x1="0"><stop
         id="stop324"
         offset="0"
         style="stop-opacity:1;stop-color:#e8f1fa" /><stop
         id="stop326"
         offset="0.26303688"
         style="stop-opacity:1;stop-color:#e8f1fa" /><stop
         id="stop328"
         offset="1"
         style="stop-opacity:1;stop-color:#50b3e5" /></linearGradient><linearGradient
       id="linearGradient352"
       spreadMethod="pad"
       gradientTransform="matrix(34.887466,-19.266226,19.266226,34.887466,422.95782,363.29861)"
       gradientUnits="userSpaceOnUse"
       y2="0"
       x2="1"
       y1="0"
       x1="0"><stop
         id="stop346"
         offset="0"
         style="stop-opacity:1;stop-color:#e8f1fa" /><stop
         id="stop348"
         offset="0.26303688"
         style="stop-opacity:1;stop-color:#e8f1fa" /><stop
         id="stop350"
         offset="1"
         style="stop-opacity:1;stop-color:#50b3e5" /></linearGradient></defs><g
     transform="matrix(1.3333333,0,0,-1.3333333,0,793.70133)"
     id="g10"><g
       id="g12"><g
         clip-path="url(#clipPath18)"
         id="g14"><g
           transform="translate(392.0388,171.272)"
           id="g20"><path
             id="path22"
             style="fill:#007e88;fill-opacity:1;fill-rule:nonzero;stroke:none"
             d="m 0,0 c -3.65,2.067 -6.363,5.511 -5.735,9.789 0.458,2.878 2.749,4.84 5.735,4.84 2.846,0 5.205,-1.962 5.663,-4.84 C 6.283,5.511 3.578,2.067 0,0 m -85.295,-1.446 h -11.358 c 1.19,3.607 4.519,14.744 12.491,14.744 3.689,0 5.212,-3.559 5.212,-6.492 0,-4.173 -1.569,-8.252 -6.345,-8.252 m -75.859,0 h -5.263 c -3.751,0 -5.154,4.324 -5.154,7.423 0,3.188 0.985,8.447 5.154,8.447 h 5.263 z M 22.135,27.827 H 17.656 V 4.685 c 0,-3.859 -2.136,-6.131 -6.309,-6.131 H 5.093 c 3.12,2.777 5.724,6.694 5.1,11.185 -0.732,4.84 -4.054,8.652 -10.193,8.652 -6.207,0 -9.544,-3.812 -10.272,-8.652 -0.563,-4.491 1.987,-8.408 5.1,-11.185 h -7.03 c -3.697,0 -5.987,1.756 -5.987,4.905 v 24.317 h -4.487 V 3.607 c 0,-3.142 -1.98,-5.053 -5.306,-5.053 h -5.479 v 19.837 h -4.487 V -1.446 h -8.433 v 19.837 h -4.425 V -1.446 h -7.859 V 18.135 H -62.99 V -1.446 h -13.876 c 1.811,2.633 2.388,5.926 2.388,8.093 0,4.736 -2.806,10.605 -9.522,10.605 -6.673,0 -10.781,-5.869 -13.071,-11.016 v 0.101 l 0.624,18.136 h -4.484 V -1.446 H -104 c -3.69,0 -5.98,1.756 -5.98,4.905 v 14.932 h -4.494 V 3.607 c 0,-3.142 -1.977,-5.053 -5.306,-5.053 h -0.014 c -3.698,0 -5.988,1.756 -5.988,4.905 v 14.932 h -4.48 V 3.607 c 0,-3.142 -1.973,-5.053 -5.298,-5.053 h -0.007 c -3.697,0 -5.988,1.756 -5.988,4.905 v 14.932 h -4.487 V 3.607 c 0,-3.142 -1.98,-5.053 -5.309,-5.053 h -5.324 v 19.837 h -9.897 c -5.883,0 -9.63,-4.025 -9.63,-12.414 0,-8.758 5.616,-11.694 9.63,-11.694 h 15.993 v 0.069 c 3.048,0.162 5.439,1.222 6.986,3.228 1.573,-1.948 4.116,-2.943 7.236,-3.156 v -0.141 h 1.565 v 0.069 c 3.044,0.162 5.447,1.222 6.979,3.228 1.58,-1.948 4.123,-2.951 7.25,-3.156 v -0.141 h 1.544 v 0.069 c 3.059,0.162 5.464,1.222 6.994,3.228 1.691,-2.078 4.389,-3.174 7.812,-3.261 v -0.036 h 76.833 v 0.051 c 3.138,0.14 5.598,1.212 7.164,3.246 1.583,-1.948 4.104,-2.943 7.235,-3.156 v -0.141 h 7.037 c 2.027,0 4.065,0.361 5.944,0.988 1.814,-0.627 3.838,-0.988 5.876,-0.988 h 7.026 v 0.245 c 5.601,0.588 9.233,4.166 9.233,9.952 z m -54.16,-70.821 -0.725,-4.014 c 3.12,0 4.065,-1.605 4.065,-7.264 v -9.01 h -11.048 v -4.274 h 15.47 v 15.61 c 0,2.77 -0.105,3.708 -0.844,5.035 -1.295,2.478 -3.733,3.917 -6.918,3.917 m -82.338,28.008 h 4.429 v 4.783 h -4.429 z m 65.147,-52.57 h 4.483 v 33.533 h -4.483 z m -30.762,5.345 c 0,0 -5.973,5.316 -7.954,7.318 0,3.975 2.864,7.834 7.954,7.777 h 0.176 c 4.996,-0.148 7.914,-3.802 7.914,-7.777 z m 21.233,5.042 c 0,-3.848 -1.875,-6.113 -6.045,-6.113 h -10.067 c 5.825,5.085 8.123,7.455 8.123,7.455 0,6.918 -4.783,12.833 -13.244,12.833 -8.314,0 -13.158,-5.915 -13.158,-12.833 0,0 2.24,-2.052 8.328,-7.513 l -1.403,0.058 c -8.076,0 -10.471,-8 -10.471,-10.457 v -3.101 h 4.278 v 3.101 c 0,2.049 1.656,6.183 6.193,6.183 h 1.143 c 1.677,-0.051 3.441,0.191 5.09,0.865 1.742,-0.674 3.444,-0.865 5.121,-0.865 h 11.351 v 0.191 c 5.724,0.526 9.241,4.133 9.241,10.005 v 13.908 h -4.48 z m -1.612,21.804 c 0,1.388 0.357,3.195 1.922,3.195 0.725,0 1.097,-0.367 1.454,-0.93 h 3.123 c -0.836,2.265 -1.973,3.614 -4.634,3.614 -4.473,0 -4.841,-4.541 -4.841,-5.977 v -0.573 h -2.658 v -2.835 h 12.606 v 2.835 h -6.972 z M -4.155,-63.282 H -9.41 c -3.755,0 -5.158,4.324 -5.158,7.419 0,3.188 0.992,8.447 5.158,8.447 h 5.255 z m 15.322,6.113 c 0,-3.848 -2.143,-6.113 -6.305,-6.113 H 0.317 v 19.83 h -9.875 c -5.897,0 -9.645,-4.032 -9.645,-12.411 0,-8.768 5.627,-11.693 9.645,-11.693 h 5.197 c 0,-2.374 -2.034,-5.259 -4.894,-5.36 v -3.924 h 0.162 c 4.88,0 8.84,3.459 9.313,9.233 v 0.051 h 6.189 v 0.234 c 5.609,0.606 9.241,4.17 9.241,9.962 v 23.333 h -4.483 z m 9.536,-10.387 h 4.48 v 33.533 h -4.48 z M 198.42,-6.124 c -3.7,0 -5.468,2.993 -5.468,8.757 0,5.962 1.768,8.963 5.468,8.963 3.755,0 5.53,-3.001 5.53,-9.078 0,-5.649 -1.883,-8.642 -5.53,-8.642 m -25.201,4.678 h -5.266 c -3.751,0 -5.158,4.324 -5.158,7.423 0,3.188 0.989,8.447 5.158,8.447 h 5.266 z m 46.785,6.131 c 0,-3.744 -2.056,-5.955 -5.973,-6.084 -3.409,0.129 -5.551,1.825 -5.551,4.858 -0.267,7.564 -4.022,12.047 -10.06,12.047 -6.135,0 -9.94,-4.794 -10.319,-12.523 -0.144,-3.088 -2.023,-4.382 -5.082,-4.429 h -5.324 v 19.837 h -9.904 c -5.876,0 -9.623,-4.025 -9.623,-12.414 0,-8.758 5.616,-11.694 9.623,-11.694 h 5.212 c 0,-2.37 -2.031,-5.248 -4.895,-5.363 v -3.906 h 0.159 c 4.905,0 8.84,3.448 9.313,9.211 v 0.058 h 6.197 v 0.098 c 2.214,0.119 4.097,0.649 5.478,1.702 1.515,-4.17 4.693,-6.485 9.165,-6.485 4.581,0 7.762,2.413 9.277,6.788 1.501,-1.201 3.578,-1.872 6.009,-1.998 v -0.105 c 0.119,0 0.213,0.051 0.346,0.061 0.127,-0.01 0.224,-0.061 0.358,-0.061 h 0.833 v 0.245 c 5.608,0.588 9.233,4.166 9.233,9.952 v 23.347 h -4.472 z m 9.525,-10.402 h 4.473 v 33.544 h -4.473 z m -202.175,0 h 4.465 v 33.544 h -4.465 z m 103.42,-57.565 h -11.979 c 1.259,3.704 4.527,14.727 12.552,14.727 3.647,0 5.151,-3.55 5.151,-6.486 0,-4.079 -1.407,-8.241 -5.724,-8.241 m -40.53,-4.696 c -3.701,0 -5.458,2.993 -5.458,8.761 0,5.976 1.757,8.959 5.458,8.959 3.758,0 5.525,-2.983 5.525,-9.057 0,-5.67 -1.875,-8.663 -5.525,-8.663 m 59.715,10.809 c 0,-3.848 -2.136,-6.113 -6.298,-6.113 h -5.078 c 1.825,2.618 2.395,5.922 2.395,8.079 0,4.743 -2.81,10.622 -9.476,10.622 -6.719,0 -10.827,-5.879 -13.125,-10.925 v 11.791 h -4.317 v -19.567 h -7.827 c -3.65,0 -5.934,1.742 -5.934,4.898 -0.266,7.563 -4.007,12.043 -10.055,12.043 -6.147,0 -9.948,-4.79 -10.309,-12.508 -0.148,-3.001 -1.937,-4.278 -4.833,-4.408 -3.932,0.105 -6.009,2.33 -6.009,6.088 l 0.058,23.142 H 64.664 V -57.36 c 0,-5.872 3.653,-9.479 9.385,-10.005 v -0.191 h 0.786 c 0.097,0 0.18,0.028 0.278,0.028 0.097,0 0.144,-0.028 0.231,-0.028 v 0.054 c 2.344,0.083 4.299,0.645 5.738,1.745 1.511,-4.173 4.678,-6.496 9.162,-6.496 4.584,0 7.765,2.421 9.276,6.81 1.508,-1.223 3.578,-1.886 6.002,-2.009 v -0.104 h 39.668 v 0.234 c 5.609,0.606 9.241,4.17 9.241,9.962 v 23.333 h -4.472 z m -94.843,-9.262 c 0,-3.762 -1.655,-6.132 -5.67,-6.132 -4.057,0 -5.785,2.37 -5.785,6.132 v 22.979 h -4.473 v -23.185 c 0,-6.081 4.116,-10.203 9.58,-10.203 0.419,-0.047 0.678,-0.047 1.306,0 5.472,0 9.583,4.072 9.583,10.149 v 23.239 h -4.541 z m -208.14,51.445 h 4.494 v 4.783 h -4.494 z M 51.221,-35.881 h -4.473 v -4.84 h 4.473 z M 66.5,27.827 H 62.082 V 23.026 H 66.5 Z m -6.965,0 h -4.426 v -4.801 h 4.426 z m -57.465,0 H -2.359 V 23.026 H 2.07 Z M 56.88,14.424 h 5.255 V -1.446 H 56.88 c -3.755,0 -5.161,4.324 -5.161,7.423 0,3.188 0.988,8.447 5.161,8.447 M 56.725,-5.717 h 88.343 c 5.002,0 8.083,2.839 8.083,8.235 v 15.873 h -4.494 V 4.685 c 0,-5.046 -0.931,-6.131 -3.734,-6.131 h -4.746 v 19.837 h -4.473 V -1.446 h -8.494 v 19.581 h -4.317 V -1.446 h -13.407 v 19.837 h -4.487 V -1.446 H 96.566 V 18.391 H 92.144 V -1.446 H 84.289 V 18.135 H 79.964 V -1.446 H 66.615 v 19.837 h -9.89 c -5.89,0 -9.634,-4.025 -9.634,-12.414 0,-8.758 5.616,-11.694 9.634,-11.694 m 75.192,-28.364 h -4.48 v -4.79 h 4.48 z m -257.749,61.908 h -4.473 v -4.851 h 4.473 z m 301.28,-2.741 h -6.968 v 0.681 c 0,1.371 0.36,3.185 1.915,3.185 0.732,0 1.093,-0.357 1.457,-0.927 h 3.081 c -0.845,2.262 -1.981,3.643 -4.588,3.643 -4.484,0 -4.844,-4.577 -4.844,-6.009 v -0.573 h -2.659 v -2.828 h 12.606 z m -339.21,2.741 h -4.426 v -4.801 h 4.426 z m 42.323,-42.813 h 4.48 v 4.783 h -4.48 z m -24.491,0 h 4.426 v 4.783 h -4.426 z m -10.849,42.813 h -4.426 v -4.801 h 4.426 z" /></g></g></g><g
       id="g24"><g
         id="g26"><g
           id="g32"><g
             id="g34"><path
               id="path44"
               style="fill:url(#linearGradient42);stroke:none"
               d="m 316.752,431.64 38.997,-22.522 59.477,34.345 v 45.028 z" /></g></g></g></g><g
       id="g46"><g
         id="g48"><g
           id="g54"><g
             id="g56"><path
               id="path66"
               style="fill:url(#linearGradient64);stroke:none"
               d="m 426.657,286.32 v -45.046 l 98.463,56.855 -38.998,22.517 z" /></g></g></g></g><g
       id="g68"><g
         id="g70"><g
           id="g76"><g
             id="g78"><path
               id="path88"
               style="fill:url(#linearGradient86);stroke:none"
               d="m 426.657,488.506 v -45.032 l 59.465,-34.363 39.02,22.529 z" /></g></g></g></g><g
       id="g90"><g
         id="g92"><g
           id="g98"><g
             id="g100"><path
               id="path112"
               style="fill:url(#linearGradient110);stroke:none"
               d="m 491.836,399.203 v -68.646 l 39.015,-22.527 10e-4,0.059 v 113.646 h -0.002 z" /></g></g></g></g><g
       id="g114"><g
         id="g116"><g
           id="g122"><g
             id="g124"><path
               id="path134"
               style="fill:url(#linearGradient132);stroke:none"
               d="M 311.031,421.735 V 308.026 l 39.016,22.521 v 68.66 l -39.016,22.529 z" /></g></g></g></g><g
       id="g136"><g
         id="g138"><g
           id="g144"><g
             id="g146"><path
               id="path156"
               style="fill:url(#linearGradient154);stroke:none"
               d="m 316.77,298.129 98.456,-56.844 v 45.046 l -59.462,34.315 z" /></g></g></g></g><g
       id="g158"><g
         id="g160"><g
           id="g166"><g
             id="g168"><path
               id="path178"
               style="fill:url(#linearGradient176);stroke:none"
               d="m 362.58,398.504 v -67.308 l 20.715,11.964 v 43.466 l -20.714,11.957 z" /></g></g></g></g><g
       id="g180"><g
         id="g182"><g
           id="g188"><g
             id="g190"><path
               id="path200"
               style="fill:url(#linearGradient198);stroke:none"
               d="m 362.58,331.196 58.359,-33.71 10e-4,0.001 v 23.917 l -37.645,21.756 z" /></g></g></g></g><g
       id="g202"><g
         id="g204"><g
           id="g210"><g
             id="g212"><path
               id="path222"
               style="fill:url(#linearGradient220);stroke:none"
               d="m 420.94,321.404 v -23.918 l 58.373,33.71 -20.714,11.95 z" /></g></g></g></g><g
       id="g224"><g
         id="g226"><g
           id="g232"><g
             id="g234"><path
               id="path244"
               style="fill:url(#linearGradient242);stroke:none"
               d="m 458.599,386.626 v -43.466 -0.014 l 20.714,-11.95 v 67.386 h -10e-4 z" /></g></g></g></g><g
       id="g246"><g
         id="g248"><g
           id="g254"><g
             id="g256"><path
               id="path266"
               style="fill:url(#linearGradient264);stroke:none"
               d="m 362.58,398.583 20.715,-11.957 37.645,21.739 v 23.913 0 z" /></g></g></g></g><g
       id="g268"><g
         id="g270"><g
           id="g276"><g
             id="g278"><path
               id="path288"
               style="fill:url(#linearGradient286);stroke:none"
               d="m 420.94,408.365 37.659,-21.739 20.714,11.957 -58.373,33.695 z" /></g></g></g></g><g
       id="g290"><g
         id="g292"><g
           id="g298"><g
             id="g300"><path
               id="path310"
               style="fill:url(#linearGradient308);stroke:none"
               d="m 383.295,386.626 37.645,-21.735 37.659,21.735 -37.659,21.739 z" /></g></g></g></g><g
       id="g312"><g
         id="g314"><g
           id="g320"><g
             id="g322"><path
               id="path332"
               style="fill:url(#linearGradient330);stroke:none"
               d="M 383.295,386.626 V 343.16 l 37.645,-21.756 v 43.487 z" /></g></g></g></g><g
       id="g334"><g
         id="g336"><g
           id="g342"><g
             id="g344"><path
               id="path354"
               style="fill:url(#linearGradient352);stroke:none"
               d="m 420.94,364.891 v -43.487 l 37.659,21.756 v 43.466 h -10e-4 z" /></g></g></g></g></g></svg>